<svg id="Capa_1" enable-background="new 0 0 497 497" height="512" viewBox="0 0 497 497" width="512" xmlns="http://www.w3.org/2000/svg"><g><path d="m392 45.5c-16.569 0-30 13.432-30 30 0 33.137-26.863 60-60 60-82.843 0-150 67.157-150 150l120-75c74.558 0 135-60.442 135-135z" fill="#f9b992"/><path d="m392 45.5v30c0 66.274-53.727 120-120 120v30c82.842 0 150-67.157 150-150 0-16.568-13.432-30-30-30z" fill="#f79876"/><path d="m92 286.5v120h121.36c24.832 18.227 55.475 29 88.64 29h135c16.568 0 30-13.431 30-30z" fill="#f79876"/><path d="m437 375.5-15-15-45 15 30 30h60c0-16.569-13.432-30-30-30z" fill="#f9b992"/><path d="m422 330.5h-45v45h75c16.568 0 30-13.431 30-30z" fill="#f79876"/><path d="m452 315.5-22.5-15-52.5 15v30h105c0-16.569-13.432-30-30-30z" fill="#f9b992"/><path d="m437 270.5h-60v45h90c16.568 0 30-13.431 30-30z" fill="#f79876"/><path d="m467 255.5-30-15-60 15v30h120c0-16.569-13.432-30-30-30z" fill="#f9b992"/><path d="m437 210.5h-60v45h90c16.568 0 30-13.431 30-30z" fill="#f79876"/><path d="m467 195.5h-90v30h120c0-16.569-13.432-30-30-30z" fill="#f9b992"/><path d="m257 195.5v-1h-165v182h121.35c6.385 0 12.603 2.037 17.75 5.814 20.667 15.168 45.184 23.186 70.9 23.186h105v-210z" fill="#f9b992"/><path d="m112 421.5-56-30-56 30v22.5c0 4.142 3.358 7.5 7.5 7.5h97c4.142 0 7.5-3.358 7.5-7.5z" fill="#fcca5c"/><path d="m104.5 149.5h-97c-4.142 0-7.5 3.358-7.5 7.5v264.5h112v-264.5c0-4.142-3.358-7.5-7.5-7.5z" fill="#fff066"/><g fill="#5b3364"><path d="m22.501 421.501c0-2.418 1.172-4.745 3.239-6.172l32.203-22.239h-27.941c-4.142 0-7.5-3.358-7.5-7.5s3.358-7.5 7.5-7.5h52c3.282 0 6.183 2.134 7.16 5.268.977 3.132-.197 6.538-2.898 8.403l-32.203 22.239h27.941c4.142 0 7.5 3.358 7.5 7.5s-3.358 7.5-7.5 7.5h-52c-3.282 0-6.183-2.134-7.16-5.268-.23-.736-.341-1.488-.341-2.231z"/><path d="m22.502 355.59c0-4.142 3.358-7.5 7.5-7.5h52c4.142 0 7.5 3.358 7.5 7.5s-3.358 7.5-7.5 7.5h-52c-4.143 0-7.5-3.358-7.5-7.5z"/><path d="m32.668 227.51 51.249-19.315c.069-.026.137-.053.205-.081 3.269-1.343 5.38-4.493 5.38-8.026-.003-3.546-2.122-6.696-5.397-8.033-.056-.023-.112-.045-.169-.067l-51.268-19.5c-3.872-1.472-8.204.473-9.677 4.344-1.472 3.874.473 8.204 4.344 9.677l7.935 3.018v20.973l-7.935 2.99c-3.872 1.473-5.816 5.803-4.344 9.677 1.473 3.871 5.806 5.816 9.677 4.343zm17.602-32.277 12.695 4.829-12.695 4.784z"/><path d="m22.502 263.5v-18c0-4.142 3.358-7.5 7.5-7.5h52c4.142 0 7.5 3.358 7.5 7.5s-3.358 7.5-7.5 7.5h-44.5v10.5c0 4.142-3.358 7.5-7.5 7.5s-7.5-3.358-7.5-7.5z"/><path d="m22.502 304.5v-18c0-4.142 3.358-7.5 7.5-7.5h52c4.142 0 7.5 3.358 7.5 7.5s-3.358 7.5-7.5 7.5h-44.5v10.5c0 4.142-3.358 7.5-7.5 7.5s-7.5-3.358-7.5-7.5z"/></g></g></svg>